<svg width="18" height="18" viewBox="0 0 18 18" fill="none" xmlns="http://www.w3.org/2000/svg">
<path d="M13.5 7.3125H12.375C12.3746 6.86508 12.1966 6.43612 11.8802 6.11975C11.5639 5.80338 11.1349 5.62545 10.6875 5.625V4.5C11.4331 4.50089 12.148 4.7975 12.6753 5.32475C13.2025 5.852 13.4991 6.56685 13.5 7.3125Z" fill="#6FA052"/>
<path d="M15.75 7.3125H14.625C14.6238 6.26858 14.2086 5.26775 13.4704 4.52958C12.7322 3.79142 11.7314 3.37619 10.6875 3.375V2.25C12.0297 2.25149 13.3165 2.78534 14.2656 3.73442C15.2147 4.6835 15.7485 5.9703 15.75 7.3125ZM14.625 16.3125H14.5294C3.47624 15.6769 1.90686 6.35063 1.68749 3.50438C1.6532 3.05817 1.79756 2.61662 2.08881 2.27685C2.38006 1.93707 2.79435 1.7269 3.24055 1.69256C3.28518 1.68919 3.32999 1.6875 3.37499 1.6875H6.33936C6.56468 1.68728 6.78487 1.75472 6.97141 1.88109C7.15795 2.00746 7.30225 2.18693 7.38561 2.39625L8.24061 4.5C8.32294 4.7045 8.34337 4.92867 8.29936 5.14468C8.25536 5.36068 8.14887 5.559 7.99311 5.715L6.79499 6.92438C6.98138 7.98825 7.49046 8.96905 8.25318 9.73379C9.0159 10.4985 9.99536 11.0102 11.0587 11.1994L12.2794 9.99C12.4377 9.83596 12.6379 9.73195 12.855 9.69094C13.072 9.64993 13.2964 9.67373 13.5 9.75938L15.6206 10.6088C15.8268 10.6947 16.0027 10.8402 16.1259 11.0265C16.2491 11.2128 16.3141 11.4316 16.3125 11.655V14.625C16.3125 15.0726 16.1347 15.5018 15.8182 15.8182C15.5018 16.1347 15.0725 16.3125 14.625 16.3125ZM3.37499 2.8125C3.30112 2.81228 3.22793 2.82661 3.1596 2.85467C3.09127 2.88274 3.02914 2.92398 2.97675 2.97606C2.92436 3.02814 2.88274 3.09002 2.85426 3.15818C2.82579 3.22634 2.81102 3.29944 2.8108 3.37331C2.8108 3.38906 2.81136 3.40463 2.81249 3.42C3.07124 6.75 4.73061 14.625 14.5912 15.1875C14.7401 15.1964 14.8864 15.1459 14.998 15.0469C15.1096 14.948 15.1774 14.8088 15.1864 14.6599L15.1875 14.625V11.655L13.0669 10.8056L11.4525 12.4087L11.1825 12.375C6.28874 11.7619 5.62499 6.86813 5.62499 6.8175L5.59124 6.5475L7.18874 4.93313L6.34499 2.8125H3.37499Z" fill="#6FA052"/>
</svg>
