<svg width="16" height="16" viewBox="0 0 16 16" fill="none" xmlns="http://www.w3.org/2000/svg">
<path d="M2.75 14.75H11.75C12.5456 14.75 13.3087 14.4339 13.8713 13.8713C14.4339 13.3087 14.75 12.5456 14.75 11.75V2.75C14.75 2.35218 14.592 1.97064 14.3107 1.68934C14.0294 1.40804 13.6478 1.25 13.25 1.25H5.75C5.35218 1.25 4.97064 1.40804 4.68934 1.68934C4.40804 1.97064 4.25 2.35218 4.25 2.75V12.5C4.25 13.7427 3.99275 14.75 2.75 14.75Z" stroke="#6FA052" stroke-width="1.5" stroke-linecap="round" stroke-linejoin="round"/>
<path d="M1.25 6.5C1.25 6.10218 1.40804 5.72064 1.68934 5.43934C1.97064 5.15804 2.35218 5 2.75 5H4.25V12.875C4.25 13.91 3.785 14.75 2.75 14.75C1.715 14.75 1.25 13.91 1.25 12.875V6.5Z" stroke="#6FA052" stroke-width="1.5" stroke-linecap="round" stroke-linejoin="round"/>
<path d="M8 5.75C8.41421 5.75 8.75 5.41421 8.75 5C8.75 4.58579 8.41421 4.25 8 4.25C7.58579 4.25 7.25 4.58579 7.25 5C7.25 5.41421 7.58579 5.75 8 5.75Z" stroke="#6FA052" stroke-width="1.5" stroke-linecap="round"/>
<path d="M7.25 11.75H9.5M7.25 9.5H11.75H7.25Z" stroke="#6FA052" stroke-width="1.5" stroke-linecap="round"/>
</svg>
