<svg width="14" height="12" viewBox="0 0 14 12" fill="none" xmlns="http://www.w3.org/2000/svg">
<path d="M12.3333 11.3333H1.66665C1.31302 11.3333 0.973886 11.1928 0.723837 10.9428C0.473789 10.6927 0.333313 10.3536 0.333313 9.99996V1.94196C0.348268 1.59849 0.495319 1.27407 0.743765 1.03643C0.992211 0.798788 1.32285 0.666301 1.66665 0.666627H12.3333C12.6869 0.666627 13.0261 0.807102 13.2761 1.05715C13.5262 1.3072 13.6666 1.64634 13.6666 1.99996V9.99996C13.6666 10.3536 13.5262 10.6927 13.2761 10.9428C13.0261 11.1928 12.6869 11.3333 12.3333 11.3333ZM1.66665 3.24529V9.99996H12.3333V3.24529L6.99998 6.79996L1.66665 3.24529ZM2.19998 1.99996L6.99998 5.19996L11.8 1.99996H2.19998Z" fill="#6FA052"/>
</svg>
