<svg width="32" height="32" viewBox="0 0 32 32" fill="none" xmlns="http://www.w3.org/2000/svg">
<mask id="mask0_350_441" style="mask-type:alpha" maskUnits="userSpaceOnUse" x="0" y="0" width="32" height="32">
<rect width="32" height="32" fill="#C4C4C4"/>
</mask>
<g mask="url(#mask0_350_441)">
<path d="M14.6001 18.6666L22.1334 11.1333L20.2334 9.29996L14.6001 14.9333L11.7334 12.0666L9.86675 13.9333L14.6001 18.6666ZM10.6667 22.6666H21.3334V20H10.6667V22.6666ZM16.0001 29.3333C14.1556 29.3333 12.4223 28.9831 10.8001 28.2826C9.17786 27.5831 7.76675 26.6333 6.56675 25.4333C5.36675 24.2333 4.41697 22.8222 3.71741 21.2C3.01697 19.5777 2.66675 17.8444 2.66675 16C2.66675 14.1555 3.01697 12.4222 3.71741 10.8C4.41697 9.17774 5.36675 7.76663 6.56675 6.56663C7.76675 5.36663 9.17786 4.4164 10.8001 3.71596C12.4223 3.0164 14.1556 2.66663 16.0001 2.66663C17.8445 2.66663 19.5779 3.0164 21.2001 3.71596C22.8223 4.4164 24.2334 5.36663 25.4334 6.56663C26.6334 7.76663 27.5832 9.17774 28.2827 10.8C28.9832 12.4222 29.3334 14.1555 29.3334 16C29.3334 17.8444 28.9832 19.5777 28.2827 21.2C27.5832 22.8222 26.6334 24.2333 25.4334 25.4333C24.2334 26.6333 22.8223 27.5831 21.2001 28.2826C19.5779 28.9831 17.8445 29.3333 16.0001 29.3333ZM16.0001 26.6666C18.9556 26.6666 21.4725 25.628 23.5507 23.5506C25.6281 21.4724 26.6667 18.9555 26.6667 16C26.6667 13.0444 25.6281 10.5275 23.5507 8.44929C21.4725 6.37196 18.9556 5.33329 16.0001 5.33329C13.0445 5.33329 10.5281 6.37196 8.45075 8.44929C6.37253 10.5275 5.33341 13.0444 5.33341 16C5.33341 18.9555 6.37253 21.4724 8.45075 23.5506C10.5281 25.628 13.0445 26.6666 16.0001 26.6666Z" fill="#6FA052"/>
</g>
</svg>
