<svg width="18" height="18" viewBox="0 0 18 18" fill="none" xmlns="http://www.w3.org/2000/svg">
<path d="M1.70712 0.980657L16.7571 8.17852C16.9092 8.25115 17.0377 8.36537 17.1276 8.50795C17.2175 8.65053 17.2652 8.81566 17.2652 8.98423C17.2652 9.1528 17.2175 9.31793 17.1276 9.46051C17.0377 9.60309 16.9092 9.71731 16.7571 9.78994L1.70712 16.9878C1.55284 17.0617 1.38058 17.0897 1.21082 17.0685C1.04107 17.0473 0.880983 16.9778 0.749601 16.8683C0.61822 16.7587 0.521078 16.6137 0.469734 16.4505C0.418389 16.2873 0.415004 16.1129 0.459981 15.9478L1.9657 10.4278C1.98413 10.3602 2.02206 10.2994 2.07478 10.2532C2.12749 10.207 2.19265 10.1773 2.26212 10.1678L9.55498 9.17709C9.58547 9.17275 9.61431 9.16061 9.63872 9.14183C9.66312 9.12306 9.68226 9.0983 9.69427 9.06994L9.70712 9.02566C9.71276 8.98578 9.70475 8.94517 9.68439 8.91042C9.66403 8.87566 9.63252 8.84882 9.59498 8.83423L9.5557 8.82352L2.26998 7.8328C2.20063 7.82322 2.13563 7.79346 2.08306 7.74724C2.03048 7.70101 1.99265 7.64035 1.97427 7.5728L0.459981 2.02137C0.414822 1.85627 0.41807 1.68168 0.469336 1.51837C0.520603 1.35507 0.617729 1.20994 0.749145 1.10028C0.880562 0.990612 1.04073 0.921033 1.21057 0.899825C1.38042 0.878617 1.55278 0.906676 1.70712 0.980657Z" fill="#6FA052"/>
</svg>
